<svg xmlns="http://www.w3.org/2000/svg" viewBox="0 0 22.85 18.63"><defs><style>.cls-1{fill:#353535;}</style></defs><title>总人数</title><g id="图层_2" data-name="图层 2"><g id="图层_1-2" data-name="图层 1"><path class="cls-1" d="M11.52,9.51a5.08,5.08,0,1,0-4.88,0A9.14,9.14,0,0,0,0,18.12a.51.51,0,0,0,.49.51.5.5,0,0,0,.51-.5,8.08,8.08,0,0,1,16.16,0,.5.5,0,0,0,.5.5h0a.51.51,0,0,0,.49-.51A9.14,9.14,0,0,0,11.52,9.51ZM5,5.08A4.08,4.08,0,1,1,9.08,9.17,4.08,4.08,0,0,1,5,5.08Z"/><path class="cls-1" d="M17.11,8.46A4.58,4.58,0,0,0,14.66,0h-.19A.52.52,0,0,0,14,.53a.5.5,0,0,0,.53.47h.14a3.59,3.59,0,1,1,0,7.17.5.5,0,0,0-.5.5.51.51,0,0,0,.5.5H15A6.88,6.88,0,0,1,21.85,16v.16a.5.5,0,0,0,.49.51h0a.51.51,0,0,0,.5-.49V16A7.89,7.89,0,0,0,17.11,8.46Z"/></g></g></svg>