<svg xmlns="http://www.w3.org/2000/svg" viewBox="0 0 18.01 19.17"><defs><style>.cls-1{fill:#353535;}</style></defs><title>新增人数</title><g id="图层_2" data-name="图层 2"><g id="图层_1-2" data-name="图层 1"><path class="cls-1" d="M14.16,5.08A5.08,5.08,0,1,0,6.64,9.51,9.14,9.14,0,0,0,0,18.12a.51.51,0,0,0,.49.51h0a.5.5,0,0,0,.5-.5,8.12,8.12,0,0,1,8.08-8A5.09,5.09,0,0,0,14.16,5.08ZM5,5.08A4.08,4.08,0,1,1,9.08,9.17,4.08,4.08,0,0,1,5,5.08Z"/><path class="cls-1" d="M17.51,14.15H14V10.63a.5.5,0,0,0-.5-.5.5.5,0,0,0-.5.5v3.52H9.47a.5.5,0,0,0,0,1H13v3.52a.5.5,0,0,0,.5.5.5.5,0,0,0,.5-.5V15.15h3.52a.5.5,0,0,0,0-1Z"/></g></g></svg>