<svg xmlns="http://www.w3.org/2000/svg" viewBox="0 0 20.39 20.98"><defs><style>.cls-1{fill:#353535;}</style></defs><title>病重</title><g id="图层_2" data-name="图层 2"><g id="图层_1-2" data-name="图层 1"><path class="cls-1" d="M18.64,16.41h-1V13.52a7.48,7.48,0,0,0-14.95,0v2.89h-1A1.09,1.09,0,0,0,.66,17.5v2.39A1.09,1.09,0,0,0,1.75,21H18.64a1.09,1.09,0,0,0,1.09-1.09V17.5A1.09,1.09,0,0,0,18.64,16.41ZM3.72,13.52a6.48,6.48,0,0,1,13,0v2.8H3.72Zm15,6.37a.09.09,0,0,1-.09.09H1.75a.09.09,0,0,1-.09-.09V17.5a.09.09,0,0,1,.09-.09H18.64a.09.09,0,0,1,.09.09Z"/><path class="cls-1" d="M2.9,7.9a.51.51,0,0,0,.44-.25A.5.5,0,0,0,3.15,7L.75,5.58a.5.5,0,0,0-.68.19.5.5,0,0,0,.18.68l2.4,1.39A.57.57,0,0,0,2.9,7.9Z"/><path class="cls-1" d="M20.32,5.93a.49.49,0,0,0-.68-.18l-2.4,1.38a.51.51,0,0,0-.18.69.5.5,0,0,0,.43.25A.47.47,0,0,0,17.74,8l2.4-1.39A.49.49,0,0,0,20.32,5.93Z"/><path class="cls-1" d="M10.24,3.78a.5.5,0,0,0,.5-.5V.5a.5.5,0,0,0-.5-.5.5.5,0,0,0-.5.5V3.28A.51.51,0,0,0,10.24,3.78Z"/></g></g></svg>